<?xml version="1.0" encoding="UTF-8" standalone="no"?>
<!DOCTYPE svg PUBLIC "-//W3C//DTD SVG 1.1//EN" "http://www.w3.org/Graphics/SVG/1.1/DTD/svg11.dtd">
<!-- Generiert durch Microsoft Visio, SVG Export runpp_options.svg svg8 -->
<svg xmlns="http://www.w3.org/2000/svg" xmlns:xlink="http://www.w3.org/1999/xlink" xmlns:ev="http://www.w3.org/2001/xml-events"
		xmlns:v="http://schemas.microsoft.com/visio/2003/SVGExtensions/" width="0.28833in" height="0.288378in"
		viewBox="0 0 20.7597 20.7632" xml:space="preserve" color-interpolation-filters="sRGB" class="st4">
	<v:documentProperties v:langID="1031" v:viewMarkup="false"/>

	<style type="text/css">
	<![CDATA[
		.st1 {fill:#000000;stroke:none;stroke-linecap:butt;stroke-width:0.75}
		.st2 {fill:#008000;stroke:none;stroke-linecap:butt;stroke-width:0.175082}
		.st3 {fill:#000000;stroke:none;stroke-linecap:butt;stroke-width:0.428442}
		.st4 {fill:none;fill-rule:evenodd;font-size:12px;overflow:visible;stroke-linecap:square;stroke-miterlimit:3}
	]]>
	</style>

	<g v:mID="0" v:index="1" v:groupContext="foregroundPage">
		<title>svg8</title>
		<v:pageProperties v:drawingScale="1" v:pageScale="1" v:drawingUnits="19" v:shadowOffsetX="9" v:shadowOffsetY="-9"/>
		<g id="group1-1" transform="translate(2.83441E-007,-2.83465E-007)" v:mID="1" v:groupContext="group">
			<title>layer1</title>
			<g id="shape2-2" v:mID="2" v:groupContext="shape" transform="translate(2.9976E-014,-3.98421)">
				<title>path3680</title>
				<path d="M0 6.22 L2.25 3.98 L10.6 12.37 L2.25 20.76 L0 18.53 L6.13 12.37 L0 6.22 ZM13.53 12.37 L7.4 18.53 L9.65 20.76
							 L18 12.37 L9.65 3.98 L7.4 6.22 L13.53 12.37 Z" class="st1"/>
			</g>
			<g id="shape3-4" v:mID="3" v:groupContext="shape" transform="translate(0.184724,-4.2301)">
				<title>path3691</title>
				<path d="M1.01 19.75 L0.01 18.74 L2.98 15.77 C4.62 14.14 5.96 12.72 5.96 12.63 C5.96 12.53 4.62 11.11 2.98 9.47 L0
							 6.49 L1.05 5.44 L2.11 4.4 L6.22 8.51 L10.33 12.62 L6.26 16.69 C4.03 18.93 2.15 20.76 2.1 20.76 C2.05
							 20.76 1.56 20.31 1.01 19.75 Z" class="st2"/>
			</g>
			<g id="shape4-6" v:mID="4" v:groupContext="shape" transform="translate(7.53814,-4.2301)">
				<title>path3693</title>
				<path d="M1.01 19.75 L0.01 18.74 L3.07 15.68 L6.13 12.63 L3.07 9.56 L0 6.49 L1.05 5.44 L2.11 4.4 L6.22 8.51 L10.33
							 12.62 L6.26 16.69 C4.03 18.93 2.15 20.76 2.1 20.76 C2.05 20.76 1.56 20.31 1.01 19.75 Z" class="st2"/>
			</g>
			<g id="shape5-8" v:mID="5" v:groupContext="shape" transform="translate(10.6875,-2.7914)">
				<title>path3695</title>
				<path d="M7.31 17.23 L7.31 16.12 C6.81 15.92 6.49 15.87 6.33 15.44 L6.33 15.44 C6.17 15 6.36 14.71 6.59 14.17 L5.89
							 13.39 C5.42 13.65 5.15 13.86 4.76 13.68 L4.76 13.68 C4.38 13.5 4.33 13.15 4.15 12.59 L3.16 12.59 C2.99
							 13.14 2.94 13.5 2.55 13.68 L2.55 13.68 C2.16 13.86 1.9 13.65 1.42 13.39 L0.72 14.17 C0.95 14.71 1.14
							 15 0.98 15.44 C0.82 15.87 0.5 15.93 0 16.12 L0 17.23 C0.5 17.42 0.82 17.48 0.98 17.91 C1.14 18.35 0.95
							 18.65 0.72 19.18 L1.42 19.96 C1.89 19.7 2.16 19.49 2.55 19.67 L2.55 19.67 C2.94 19.85 2.99 20.2 3.16
							 20.76 L4.15 20.76 C4.33 20.21 4.38 19.85 4.77 19.67 L4.77 19.67 C5.15 19.49 5.41 19.7 5.89 19.96 L6.59
							 19.18 C6.36 18.64 6.17 18.35 6.33 17.91 C6.49 17.48 6.81 17.42 7.31 17.23 L7.31 17.23 ZM3.66 18.04 C2.98
							 18.04 2.44 17.43 2.44 16.67 C2.44 15.92 2.98 15.31 3.66 15.31 C4.33 15.31 4.88 15.92 4.88 16.67 C4.88
							 17.43 4.33 18.04 3.66 18.04 Z" class="st3"/>
			</g>
		</g>
	</g>
</svg>
